<?xml version="1.0" encoding="UTF-8"?>
<COLLADA xmlns="http://www.collada.org/2005/11/COLLADASchema" version="1.4.1">
<!--
# File generated by ImageToStl.com - Free Image and 3D model conversion tools
-->
  <asset>
    <contributor>
      <author>ImageToStl.com</author>
      <authoring_tool>ImageToStl.com</authoring_tool>
    </contributor>
    <created>2025-05-28T09:54:37</created>
    <modified>2025-05-28T09:54:37</modified>
    <up_axis>Z_UP</up_axis>
  </asset>
  <library_effects>
    <effect id="effect_0">
        <profile_COMMON>
          <technique sid="common">
            <phong>
              <diffuse>
                <color>0.85 0.85 0.85 1</color>
              </diffuse>
              <specular>
                <color>0.05 0.05 0.05 1</color>
              </specular>
              <shininess>
                <float>64</float>
              </shininess>
            </phong>
          </technique>
        </profile_COMMON>
    </effect>
  </library_effects>
  <library_materials>
    <material id="mat_0">
      <instance_effect url="#effect_0"/>
    </material>
  </library_materials>
  <library_geometries>
    <geometry id="geometry_ee1d0798_0f7b_4570_ac2c_5613d68af8ac">
      <mesh>
        <source id="pos_0">
          <float_array id="pos_0-array" count="426">0.0126994 0.02304886 -0.0094194 0.00897 0.02615405 -0.00409324 0.01269941 0.05 -0.0094194 0.00409576 0.0275 0.00286788 -0.00450789 0.05 0.01515516 -0.00077847 0.02615405 0.00982901 -0.00450789 0.02304886 0.01515516 0.00777939 0.05 0.02375881 0.02498669 0.05 -0.00081575 0.14009675 -0.12728247 0.07978519 0.07376789 -0.12728247 0.03334122 0.14009677 -0.11228247 0.07978519 0.07376789 -0.11228247 0.03334122 0.15154251 -0.12728247 0.08207992 0.1533796 -0.12728247 0.08205688 0.14729594 -0.12728247 0.083405 0.12956716 -0.12728247 0.11606459 0.12896049 -0.12728247 0.1143304 0.12875324 -0.12728247 0.10988671 0.12624954 -0.12728247 0.10839606 0.12995069 -0.12728247 0.10136655 0.12483922 -0.12728247 0.10615339 0.12288947 -0.12728247 0.10435975 0.0565606 -0.12728247 0.05791578 0.13372238 -0.12728247 0.09363342 0.13969915 -0.12728247 0.0874443 0.14244908 -0.12728247 0.0810039 0.14503886 -0.12728247 0.08156212 0.12288947 -0.11228247 0.10435975 0.0565606 -0.11228247 0.05791578 0.13024729 -0.11228246 0.11835989 0.14503886 -0.11228246 0.08156212 0.12956716 -0.11228246 0.11606459 0.14244908 -0.11228247 0.0810039 0.12896049 -0.11228247 0.1143304 0.12624954 -0.11228246 0.10839606 0.12483922 -0.11228247 0.10615339 0.17202242 -0.11228247 0.08688009 0.16428928 -0.11228246 0.08310839 0.17877574 -0.11228247 0.12518013 0.15576911 -0.11228246 0.08191095 0.17279898 -0.11228247 0.13136925 0.13428658 -0.11228246 0.12595668 0.14047571 -0.11228247 0.13193345 0.15154251 -0.11228247 0.08207992 0.14820884 -0.11228247 0.13570514 0.1533796 -0.11228246 0.08205688 0.156729 -0.11228246 0.13690259 0.16520219 -0.11228247 0.13540854 0.18254744 -0.11228247 0.11744699 0.18374486 -0.11228247 0.10892683 0.17821154 -0.11228247 0.09285685 0.18225083 -0.11228246 0.10045364 0.06884142 -0.11135681 0.02989166 0.05732327 -0.12095279 0.02182657 0.06437097 -0.10866551 0.02676142 0.06241216 -0.12442003 0.02538985 0.06797025 -0.12655939 0.02928166 0.04011598 -0.12095279 0.04640113 0.04520487 -0.12442003 0.04996441 0.05076296 -0.12655939 0.05385622 0.05163413 -0.11135681 0.05446623 0.04716368 -0.10866551 0.05133598 0.0319728 -0.0809717 0.00407598 0.02492511 -0.09325898 -0.00085887 0.00771781 -0.09325898 0.02371569 0.01476551 -0.0809717 0.02865054 0.02822851 -0.07653183 0.0014542 0.01269941 -0.06458866 -0.0094194 0.02498669 -0.06458866 -0.00081575 0.01352104 -0.07290766 -0.00884409 0.02581825 -0.07087956 -0.00023349 0.01593884 -0.08074986 -0.00715112 0.01981424 -0.08766576 -0.00443754 -0.00450789 -0.06458866 0.01515516 -0.00368625 -0.07290766 0.01573048 -0.00126845 -0.08074986 0.01742344 0.00260695 -0.08766576 0.02013702 0.00861095 -0.07087956 0.02434107 0.00777939 -0.06458866 0.02375881 0.01102122 -0.07653183 0.02602876 0.01269941 -0.02304886 -0.0094194 -0.00450789 -0.02304886 0.01515516 -0.00077848 -0.02615405 0.00982901 0.00409576 -0.0275 0.00286788 0.00896999 -0.02615405 -0.00409325 0.15576912 -0.14028247 0.08191096 0.14729594 -0.14028247 0.08340501 0.13969915 -0.14028247 0.08744429 0.13372238 -0.14028247 0.09363342 0.12995067 -0.14028247 0.10136654 0.12875324 -0.14028247 0.10988671 0.13024729 -0.14028247 0.11835989 0.13428658 -0.14028247 0.12595668 0.14047572 -0.14028247 0.13193345 0.14820884 -0.14028247 0.13570516 0.156729 -0.14028247 0.13690259 0.16520219 -0.14028247 0.13540854 0.17279898 -0.14028247 0.13136925 0.17877574 -0.14028247 0.12518013 0.18254745 -0.14028247 0.117447 0.18374488 -0.14028247 0.10892683 0.18225083 -0.14028247 0.10045364 0.17821154 -0.14028247 0.09285685 0.17202242 -0.14028247 0.0868801 0.16428928 -0.14028247 0.08310839 0.15624906 -0.14028247 0.10940678 0.0133671 0.02224797 -0.01037297 0.0133671 -0.02224797 -0.01037297 0.01685667 -0.0161641 -0.01535659 0.01909711 -0.00849797 -0.01855627 0.01986911 0 -0.0196588 0.01909711 0.00849797 -0.01855627 0.01685667 0.0161641 -0.01535659 0.00927135 0.02224797 -0.01324085 0.01276091 0.0161641 -0.01822447 0.01500135 0.00849797 -0.02142415 0.01577335 0 -0.02252668 0.01500135 -0.00849797 -0.02142415 0.01276091 -0.01616409 -0.01822447 0.00927135 -0.02224797 -0.01324085 0.00487423 -0.02615405 -0.00696113 0 -0.0275 0 -0.00487423 -0.02615405 0.00696113 -0.00927134 -0.02224797 0.01324085 -0.00517558 -0.02224797 0.01610873 -0.00866515 -0.0161641 0.02109235 -0.01276091 -0.01616409 0.01822447 -0.01090559 -0.00849797 0.02429203 -0.01500135 -0.00849797 0.02142415 -0.01167759 0 0.02539456 -0.01577335 0 0.02252668 -0.01090559 0.00849797 0.02429203 -0.01500135 0.00849797 0.02142414 -0.00866515 0.0161641 0.02109235 -0.01276091 0.0161641 0.01822447 -0.00517559 0.02224797 0.01610873 -0.00927134 0.02224797 0.01324085 -0.00487424 0.02615405 0.00696113 0 0.0275 0 0.00487423 0.02615405 -0.00696113 0 0 0</float_array>
          <technique_common>
            <accessor source="#pos_0-array" count="426" stride="3">
              <param name="X" type="float"/>
              <param name="Y" type="float"/>
              <param name="Z" type="float"/>
            </accessor>
          </technique_common>
        </source>
        <source id="norm_0">
          <float_array id="norm_0-array" count="624">-0.81915 0 -0.57358 -0.81915 -0 -0.57358 -0.81915 -0 -0.57358 -0.81915 -0 -0.57358 -0.81915 0 -0.57358 -0 1 -0 0.57358 0 -0.81915 -0 -1 -0 -0 -1 0 0 -1 0 0 -1 0 0 -1 0 -0 -1 -0 -0 -1 0 0 -1 -0 -0 -1 -0 -0 -1 0 0 -1 -0 -0 -1 -0 0 -1 0 0 -1 -0 0 -1 0 -0.57358 -0 0.81915 0 1 0 -0 1 -0 -0 1 -0 0 1 0 0 1 0 -0 1 -0 -0 1 -0 0 1 0 -0 1 0 0 1 -0 -0 1 -0 0 1 0 0 1 0 0 1 0 -0 1 -0 -0 1 0 0 1 -0 0 1 -0 -0 1 0 -0 1 0 0 1 -0 0 1 -0 -0 1 0 -0.39922 -0.87321 -0.27953 -0.24632 -0.95372 -0.17248 -0.08325 -0.99482 -0.0583 0.12461 0.98836 0.08725 0.3623 0.89687 0.25369 -0.46985 -0.81915 -0.32899 0.46985 0.81915 0.32899 -0.81326 -0.1197 -0.56945 -0.76665 -0.35225 -0.53681 -0.6761 -0.56461 -0.47341 -0.54679 -0.7446 -0.38287 0.57074 0.71732 0.39964 0.7266 0.46175 0.50877 0.80869 0.15931 0.56625 -0.81915 0 -0.57358 -0.81915 -0 -0.57358 -0.81915 -0 -0.57358 -0.81915 -0 -0.57358 -0.81915 0 -0.57358 0.81915 0 0.57358 0.07937 -0 -0.99685 0.07937 -0 -0.99685 -0.95879 -0 0.2841 -0.21626 -0.0288 -0.97591 -0.17365 -0 -0.98481 -0.46947 -0 -0.88295 -0.46947 0 -0.88295 -0.71934 0 -0.69466 -0.71934 -0 -0.69466 -0.89879 -0 -0.43837 -0.89879 0 -0.43837 -0.99027 0 -0.13917 -0.99027 -0 -0.13917 -0.99143 -0 0.13062 -0.98459 -0.02086 0.17361 -0.95879 -0 0.2841 -0.88295 -0 0.46947 -0.69466 -0 0.71934 -0.69466 -0 0.71934 -0.43837 0 0.89879 -0.43837 0 0.89879 -0.13917 0 0.99027 -0.13917 0 0.99027 0.17365 0 0.98481 0.17365 0 0.98481 0.46947 0 0.88295 0.46947 0 0.88295 0.71934 0 0.69466 0.71934 0 0.69466 0.89879 0 0.43837 0.89879 0 0.43837 0.99027 0 0.13917 0.99027 0 0.13917 0.98481 0 -0.17365 0.98481 0 -0.17365 0.88295 0 -0.46947 0.88295 0 -0.46947 0.69466 0 -0.71934 0.69466 0 -0.71934 0.43837 -0 -0.89879 0.43837 -0 -0.89879 0.13917 -0 -0.99027 -0.06096 -0 -0.99814 -0.06096 -0 -0.99814 0 -1 -0 -0 -1 0 -0 -1 0 -0 -1 0 -0 -1 -0 0 -1 0 0 -1 0 -0 -1 -0 -0 -1 0 -0 -1 0 0 -1 0 0 -1 0 0 -1 -0 0 -1 -0 0 -1 0 -0 -1 -0 0 -1 -0 0 -1 -0 -0.90958 -0 0.41552 -0.90958 -0 0.41552 -0.01254 -0 -0.99992 -0.01254 -0 -0.99992 0.21071 -0 -0.97755 0.46001 -0 -0.88791 0.46001 0 -0.88791 -0.67703 0 0.73596 -0.67703 -0 0.73596 -0.84653 -0 0.53234 -0.94391 -0 0.33021 -0.94391 -0 0.33021 0.81915 0 0.57358 0.81915 0 0.57358 0.81915 0 0.57358 0.81915 0 0.57358 0.81915 0 0.57358 0.81915 -0 0.57358 0.81915 -0 0.57358 0.40558 0.70711 -0.57923 0.51106 0.45399 -0.72987 0.56651 0.15643 -0.80907 0.56651 0.15643 -0.80907 0.56651 -0.15643 -0.80907 0.51106 -0.45399 -0.72987 0.51106 -0.45399 -0.72987 0.40558 -0.70711 -0.57923 0.40558 -0.70711 -0.57923 0.32511 -0.82385 -0.4643 0.22991 -0.8904 -0.39285 0.24718 -0.90238 -0.35301 0.08973 -0.98769 -0.12814 -0.08973 -0.98769 0.12814 -0.24718 -0.90238 0.35301 -0.29053 -0.8904 0.35041 -0.32511 -0.82385 0.4643 -0.40558 -0.70711 0.57923 -0.40558 -0.70711 0.57923 -0.51106 -0.45399 0.72987 -0.51106 -0.45399 0.72987 -0.56651 -0.15643 0.80907 -0.56651 0.15643 0.80907 -0.56651 0.15643 0.80907 -0.51106 0.45399 0.72987 -0.40558 0.70711 0.57923 -0.40558 0.70711 0.57923 -0.32511 0.82385 0.4643 -0.29053 0.8904 0.35041 -0.24718 0.90238 0.35301 -0.08973 0.98769 0.12814 -0.08973 0.98769 0.12814 0.08973 0.98769 -0.12814 0.08973 0.98769 -0.12814 0.24718 0.90238 -0.35301 0.22991 0.8904 -0.39285 0.32511 0.82385 -0.4643 0.40558 0.70711 -0.57923 -0.81915 -0 -0.57358 -0.81915 -0 -0.57358 -0.81915 0 -0.57358 -0.81915 -0 -0.57358 -0.81915 0 -0.57358 -0.81915 0 -0.57358 -0.81915 -0 -0.57358 -0.81915 -0 -0.57358 -0.81915 0 -0.57358 -0.81915 -0 -0.57358 -0.81915 0 -0.57358 -0.81915 0 -0.57358 -0.81915 -0 -0.57358 -0.81915 0 -0.57358 -0.81915 0 -0.57358 -0.81915 0 -0.57358 -0.81915 -0 -0.57358 -0.81915 0 -0.57358 0.81915 -0 0.57358 0.81915 0 0.57358 0.81915 -0 0.57358 0.81915 -0 0.57358 0.81915 -0 0.57358</float_array>
          <technique_common>
            <accessor source="#norm_0-array" count="624" stride="3">
              <param name="X" type="float"/>
              <param name="Y" type="float"/>
              <param name="Z" type="float"/>
            </accessor>
          </technique_common>
        </source>
        <source id="uvs_0">
          <float_array id="uvs_0-array" count="0"></float_array>
          <technique_common>
            <accessor source="#uvs_0-array" count="0" stride="2">
              <param name="S" type="float"/>
              <param name="T" type="float"/>
            </accessor>
          </technique_common>
        </source>
        <vertices id="vert_0">
          <input semantic="POSITION" source="#pos_0"/>
        </vertices>
        <triangles count="280" material="mat_0">
          <input semantic="VERTEX" source="#vert_0" offset="0"/>
          <input semantic="NORMAL" source="#norm_0" offset="1"/>
          <p>0 0 1 0 2 0 2 1 1 1 3 1 2 2 3 2 4 2 4 3 3 3 5 3 4 4 5 4 6 4 4 5 7 5 2 5 2 5 7 5 8 5 9 6 10 6 11 6 11 6 10 6 12 6 13 7 14 7 15 7 16 8 17 8 18 8 18 9 17 9 19 9 18 10 19 10 20 10 20 11 19 11 21 11 21 12 22 12 20 12 20 13 22 13 23 13 20 14 23 14 24 14 24 15 23 15 10 15 24 16 10 16 25 16 10 17 9 17 25 17 25 18 9 18 26 18 25 19 26 19 15 19 15 20 26 20 27 20 15 21 27 21 13 21 28 22 29 22 22 22 22 22 29 22 23 22 30 23 31 23 32 23 32 24 31 24 33 24 32 25 33 25 34 25 34 26 33 26 35 26 12 27 29 27 11 27 11 27 29 27 28 27 11 28 28 28 33 28 33 28 28 28 36 28 33 29 36 29 35 29 37 30 38 30 39 30 39 31 38 31 40 31 39 32 40 32 41 32 30 33 42 33 31 33 31 34 42 34 43 34 31 35 43 35 44 35 44 36 43 36 45 36 44 37 45 37 46 37 46 38 45 38 47 38 46 39 47 39 40 39 40 40 47 40 48 40 40 41 48 41 41 41 39 42 49 42 37 42 37 43 49 43 50 43 37 44 50 44 51 44 51 45 50 45 52 45 53 6 12 6 10 6 54 6 55 6 56 6 56 6 55 6 53 6 56 6 53 6 57 6 57 6 53 6 10 6 58 46 54 46 56 46 58 46 56 46 59 46 59 47 56 47 57 47 59 47 57 47 60 47 60 48 57 48 10 48 60 48 10 48 23 48 23 22 29 22 60 22 60 22 29 22 61 22 60 22 61 22 59 22 59 22 61 22 62 22 59 22 62 22 58 22 29 49 12 49 61 49 61 49 12 49 53 49 61 50 53 50 62 50 62 50 53 50 55 50 63 6 55 6 64 6 64 6 55 6 54 6 64 51 54 51 65 51 65 51 54 51 58 51 65 22 58 22 66 22 66 22 58 22 62 22 62 52 55 52 66 52 66 52 55 52 63 52 67 6 63 6 64 6 68 6 69 6 70 6 70 6 69 6 71 6 70 6 71 6 72 6 72 6 71 6 67 6 72 6 67 6 73 6 73 6 67 6 64 6 74 53 68 53 70 53 74 53 70 53 75 53 75 54 70 54 72 54 75 54 72 54 76 54 76 55 72 55 73 55 76 55 73 55 77 55 77 56 73 56 64 56 77 56 64 56 65 56 78 22 79 22 74 22 65 22 66 22 77 22 77 22 66 22 80 22 77 22 80 22 76 22 76 22 80 22 78 22 76 22 78 22 75 22 75 22 78 22 74 22 66 57 63 57 80 57 80 57 63 57 67 57 80 58 67 58 78 58 78 58 67 58 71 58 78 59 71 59 79 59 79 59 71 59 69 59 69 6 68 6 81 6 69 6 81 6 8 6 8 6 81 6 0 6 8 6 0 6 2 6 82 60 83 60 74 60 74 61 83 61 84 61 74 62 84 62 68 62 68 63 84 63 85 63 68 64 85 64 81 64 82 22 74 22 79 22 82 22 79 22 6 22 6 22 79 22 7 22 6 22 7 22 4 22 79 65 69 65 7 65 7 65 69 65 8 65 13 66 27 66 44 66 44 67 27 67 31 67 30 68 32 68 16 68 15 69 14 69 86 69 86 70 87 70 15 70 15 71 87 71 88 71 15 72 88 72 25 72 25 73 88 73 89 73 25 74 89 74 24 74 24 75 89 75 90 75 24 76 90 76 20 76 20 77 90 77 91 77 20 78 91 78 18 78 18 79 91 79 16 79 16 80 91 80 92 80 16 81 92 81 30 81 30 82 92 82 93 82 30 82 93 82 42 82 42 83 93 83 94 83 42 84 94 84 43 84 43 85 94 85 95 85 43 86 95 86 45 86 45 87 95 87 96 87 45 88 96 88 47 88 47 89 96 89 97 89 47 90 97 90 48 90 48 91 97 91 98 91 48 92 98 92 41 92 41 93 98 93 99 93 41 94 99 94 39 94 39 95 99 95 100 95 39 96 100 96 49 96 49 97 100 97 101 97 49 98 101 98 50 98 50 99 101 99 102 99 50 100 102 100 52 100 52 101 102 101 103 101 52 102 103 102 51 102 51 103 103 103 104 103 51 104 104 104 37 104 37 105 104 105 105 105 37 106 105 106 38 106 38 107 105 107 86 107 38 107 86 107 40 107 40 108 86 108 14 108 40 109 14 109 46 109 89 110 88 110 106 110 89 111 106 111 90 111 93 112 92 112 106 112 106 113 92 113 91 113 106 114 91 114 90 114 96 115 95 115 106 115 106 116 95 116 94 116 106 117 94 117 93 117 99 118 98 118 106 118 106 119 98 119 97 119 106 120 97 120 96 120 102 121 101 121 106 121 106 122 101 122 100 122 106 123 100 123 99 123 105 117 104 117 106 117 106 116 104 116 103 116 106 124 103 124 102 124 88 125 87 125 106 125 106 126 87 126 86 126 106 127 86 127 105 127 19 128 17 128 35 128 35 129 17 129 34 129 13 130 44 130 14 130 14 131 44 131 46 131 31 132 27 132 33 132 33 132 27 132 26 132 33 133 26 133 11 133 11 134 26 134 9 134 28 135 22 135 36 135 36 136 22 136 21 136 36 137 21 137 35 137 35 137 21 137 19 137 16 138 32 138 17 138 17 139 32 139 34 139 107 140 0 140 81 140 81 141 108 141 107 141 107 142 108 142 109 142 107 143 109 143 110 143 110 144 111 144 107 144 107 145 111 145 112 145 107 146 112 146 113 146 114 147 113 147 115 147 115 148 113 148 112 148 115 148 112 148 116 148 116 149 112 149 111 149 116 150 111 150 117 150 117 151 111 151 110 151 117 151 110 151 118 151 118 152 110 152 109 152 118 153 109 153 119 153 119 154 109 154 108 154 119 155 108 155 120 155 120 156 108 156 81 156 120 157 81 157 121 157 81 158 85 158 121 158 121 159 85 159 84 159 121 159 84 159 122 159 122 160 84 160 83 160 122 160 83 160 123 160 123 161 83 161 82 161 123 162 82 162 124 162 82 163 125 163 124 163 124 164 125 164 126 164 124 165 126 165 127 165 127 166 126 166 128 166 127 167 128 167 129 167 129 168 128 168 130 168 129 168 130 168 131 168 131 169 130 169 132 169 131 170 132 170 133 170 133 171 132 171 134 171 133 171 134 171 135 171 135 172 134 172 136 172 135 173 136 173 137 173 137 174 136 174 6 174 137 175 6 175 138 175 6 176 5 176 138 176 138 177 5 177 3 177 138 178 3 178 139 178 139 179 3 179 1 179 139 180 1 180 140 180 140 181 1 181 0 181 140 182 0 182 114 182 114 183 0 183 107 183 114 184 107 184 113 184 122 185 123 185 141 185 122 186 141 186 121 186 118 187 119 187 141 187 141 188 119 188 120 188 141 189 120 189 121 189 115 190 116 190 141 190 141 191 116 191 117 191 141 192 117 192 118 192 139 193 140 193 141 193 141 194 140 194 114 194 141 195 114 195 115 195 135 196 137 196 141 196 141 197 137 197 138 197 141 198 138 198 139 198 129 192 131 192 141 192 141 191 131 191 133 191 141 199 133 199 135 199 123 200 124 200 141 200 141 201 124 201 127 201 141 202 127 202 129 202 82 140 6 140 125 140 125 141 6 141 136 141 132 203 130 203 128 203 136 204 134 204 125 204 125 205 134 205 132 205 125 206 132 206 126 206 126 207 132 207 128 207</p>
        </triangles>
      </mesh>
    </geometry>
  </library_geometries>
  <library_visual_scenes>
    <visual_scene id="DefaultScene">
      <node id="node_1e959916_512b_4c45_9a96_2a83e9096449" type="NODE">
        <matrix>1 0 0 0 0 1 0 0 0 0 1 0 0 0 0 1</matrix>
        <node id="node_187bc2f9_2693_44f1_9705_35ac3c651412" type="NODE">
          <matrix>1 0 0 0 0 1 0 0 0 0 1 0 0 0 0 1</matrix>
          <node id="node_187bc2f9_2693_44f1_9705_35ac3c651412_mesh0" type="NODE">
            <matrix>1 0 0 0 0 1 0 0 0 0 1 0 0 0 0 1</matrix>
            <instance_geometry url="#geometry_ee1d0798_0f7b_4570_ac2c_5613d68af8ac">
              <bind_material>
                <technique_common>
                  <instance_material symbol="mat_0" target="#mat_0"/>
                </technique_common>
              </bind_material>
            </instance_geometry>
          </node>
        </node>
      </node>
    </visual_scene>
  </library_visual_scenes>
  <scene>
    <instance_visual_scene url="#DefaultScene"/>
  </scene>
</COLLADA>
