<?xml version="1.0" encoding="UTF-8"?>
<COLLADA xmlns="http://www.collada.org/2005/11/COLLADASchema" version="1.4.1">
<!--
# File generated by ImageToStl.com - Free Image and 3D model conversion tools
-->
  <asset>
    <contributor>
      <author>ImageToStl.com</author>
      <authoring_tool>ImageToStl.com</authoring_tool>
    </contributor>
    <created>2025-05-28T09:54:37</created>
    <modified>2025-05-28T09:54:37</modified>
    <up_axis>Z_UP</up_axis>
  </asset>
  <library_effects>
    <effect id="effect_0">
        <profile_COMMON>
          <technique sid="common">
            <phong>
              <diffuse>
                <color>0.85 0.85 0.85 1</color>
              </diffuse>
              <specular>
                <color>0.05 0.05 0.05 1</color>
              </specular>
              <shininess>
                <float>64</float>
              </shininess>
            </phong>
          </technique>
        </profile_COMMON>
    </effect>
  </library_effects>
  <library_materials>
    <material id="mat_0">
      <instance_effect url="#effect_0"/>
    </material>
  </library_materials>
  <library_geometries>
    <geometry id="geometry_721c420e_5bbd_4f74_9a5d_9231f785b026">
      <mesh>
        <source id="pos_0">
          <float_array id="pos_0-array" count="405">-0.00675085 0.015 0.02665851 0.00227093 0.015 0.02740608 0.01104663 0.015 0.02518377 -0.015 0.015 0.02304886 -0.015 0.015 -0.0475 0.015 0.015 -0.0475 0.015 0.015 0.02304886 0.015 0.001 -0.0625 0.015 0.015 -0.0625 0.015 0.001 -0.02304886 0.015 0.001 0.02304886 -0.0225 0.015 -0.0475 -0.0225 0.015 -0.0625 -0.015 0.015 -0.0625 0.0225 0.015 -0.0625 0.0225 0.015 -0.0475 -0.0375 0.055 -0.0375 -0.0375 0.023 -0.0375 -0.0625 0.055 -0.0375 -0.1075 0.023 -0.0375 -0.0625 0.089 -0.0375 -0.1075 0.089 -0.0375 -0.1075 0.161 -0.0375 -0.0625 0.161 -0.0375 -0.1075 0.139 -0.0375 -0.0625 0.139 -0.0375 -0.1075 0.161 0.0625 -0.0625 0.161 0.0625 -0.1075 0.023 0.0625 -0.1075 0.089 -0.0475 -0.1075 0.139 -0.0475 -0.0375 0.023 0.0625 -0.0375 0.055 0.0625 -0.0625 0.055 0.0625 -0.0625 0.13450472 -0.02296177 -0.0625 0.12497871 -0.02744437 -0.0625 0.1146372 -0.02941712 -0.0625 0.14261667 -0.01625098 -0.0625 0.14880487 -0.00773365 -0.0625 0.07294939 0.02796123 -0.0625 0.07802129 0.03718698 -0.0625 0.08522819 0.04486156 -0.0625 0.09411727 0.05050273 -0.0625 0.10412998 -0.02875607 -0.0625 0.09411727 -0.02550274 -0.0625 0.08522819 -0.01986156 -0.0625 0.07802129 -0.01218698 -0.0625 0.07294939 -0.00296123 -0.0625 0.07033118 0.00723601 -0.0625 0.07033118 0.017764 -0.0625 0.13450472 0.04796177 -0.0625 0.14261667 0.04125097 -0.0625 0.14880487 0.03273366 -0.0625 0.15268049 0.02294497 -0.0625 0.154 0.0125 -0.0625 0.15268049 0.00205502 -0.0625 0.10412998 0.05375607 -0.0625 0.1146372 0.05441712 -0.0625 0.12497871 0.05244437 0.1375 0.06735484 0.01814 0.1375 0.067 0.0125 0.1375 0.15699999 0.0125 0.1375 0.06735484 0.00686 0.1375 0.07016005 -0.00406561 0.1375 0.07559423 -0.01395034 0.1375 0.15558624 0.02369105 0.1375 0.1514338 0.03417891 0.1375 0.14480358 0.04330461 0.1375 0.1361122 0.05049475 0.1375 0.12590577 0.05529754 0.1375 0.11482557 0.0574112 0.1375 0.08331592 -0.0221731 0.1375 0.09283993 -0.02821722 0.1375 0.10356784 -0.03170292 0.1375 0.11482557 -0.0324112 0.1375 0.12590577 -0.03029754 0.1375 0.1361122 -0.02549476 0.1375 0.14480358 -0.01830462 0.1375 0.10356784 0.05670293 0.1375 0.09283993 0.05321722 0.1375 0.07016005 0.0290656 0.1375 0.08331592 0.0471731 0.1375 0.07559423 0.03895033 0.1375 0.1514338 -0.00917891 0.1375 0.15558624 0.00130896 -0.0225 0.139 -0.0475 0.0225 0.139 -0.0375 0.0225 0.139 -0.0475 0.0225 0.089 -0.0475 0.0225 0.15099999 -0.0625 0.0225 0.15099999 -0.0475 0.0225 0.089 -0.0375 -0.0225 0.089 -0.0475 -0.0225 0.15099999 -0.0475 -0.0225 0.15099999 -0.0625 -0.015 0.001 -0.0625 -0.015 0.001 0.02304886 -0.015 0.001 -0.02304886 0.01104663 0.001 -0.02518377 0.00227093 0.001 -0.02740607 -0.00675085 0.001 -0.02665851 0.01862524 0.001 -0.02023241 0.01862524 0.001 0.02023241 0.02418553 0.001 -0.01308855 0.02712493 0.001 -0.00452635 0.02712493 0.001 0.00452635 0.02418553 0.001 0.01308855 -0.02170137 0.001 -0.01689085 -0.01504107 0.001 0.02302208 -0.01504107 0.001 -0.02302208 -0.02600998 0.001 0.00892924 -0.02170137 0.001 0.01689085 -0.0275 0.001 0 -0.02600998 0.001 -0.00892924 0.01862524 -0 -0.02023241 0.01104663 -0 -0.02518377 0.00227093 -0 -0.02740607 -0.00675085 -0 -0.02665851 -0.01504107 -0 -0.02302208 -0.02170137 -0 -0.01689085 -0.02600998 -0 -0.00892924 -0.0275 -0 0 -0.02600998 -0 0.00892924 -0.02170137 -0 0.01689085 -0.01504107 -0 0.02302208 -0.00675085 -0 0.02665851 0.01104663 -0 0.02518377 0.01862524 -0 0.02023241 0.02418553 -0 0.01308855 0.02712493 -0 0.00452635 0.0275 -0 0 0.02712493 -0 -0.00452635 0.02418553 -0 -0.01308855 0.00227093 -0 0.02740608 0 -0 0</float_array>
          <technique_common>
            <accessor source="#pos_0-array" count="405" stride="3">
              <param name="X" type="float"/>
              <param name="Y" type="float"/>
              <param name="Z" type="float"/>
            </accessor>
          </technique_common>
        </source>
        <source id="norm_0">
          <float_array id="norm_0-array" count="252">-0 1 0 1 0 -0 0 -1 -0 -0 0 -1 -1 -0 0 0 -0 1 -0.01497 -0.99791 0.06278 -0.01488 -0.96848 0.24866 -0.01488 -0.87621 0.4817 -0.01488 -0.87621 0.4817 -0.01488 -0.72889 0.68447 -0.01488 -0.72889 0.68447 -0.01488 -0.53577 0.84423 -0.01488 -0.53577 0.84423 -0.01488 -0.30898 0.95095 -0.01488 -0.30898 0.95095 -0.01488 -0.06278 0.99792 -0.01488 -0.06278 0.99792 -0.01488 0.18736 0.98218 -0.01488 0.18736 0.98218 -0.01488 0.42573 0.90473 -0.01488 0.42573 0.90473 -0.01488 0.63735 0.77043 -0.01488 0.63735 0.77043 -0.01488 0.80893 0.58772 -0.01488 0.80893 0.58772 -0.01488 0.92967 0.36808 -0.01488 0.92967 0.36808 -0.01488 0.992 0.12532 -0.01488 0.992 0.12532 -0.01488 0.992 -0.12532 -0.01488 0.992 -0.12532 -0.01488 0.92967 -0.36808 -0.01488 0.92967 -0.36808 -0.01488 0.80893 -0.58772 -0.01488 0.80893 -0.58772 -0.01488 0.63735 -0.77043 -0.01488 0.63735 -0.77043 -0.01488 0.42573 -0.90473 -0.01488 0.42573 -0.90473 -0.01488 0.18736 -0.98218 -0.01488 -0.06278 -0.99792 -0.01488 -0.06278 -0.99792 -0.01488 -0.30898 -0.95095 -0.01488 -0.30898 -0.95095 -0.01488 -0.53577 -0.84423 -0.01488 -0.53577 -0.84423 -0.01488 -0.72889 -0.68447 -0.01488 -0.72889 -0.68447 -0.01488 -0.87621 -0.4817 -0.01488 -0.87621 -0.4817 -0.01488 -0.96848 -0.24866 -0.01488 -0.96848 -0.24866 -0.01497 -0.99791 -0.06278 -0.01665 -0.99986 -0 0.51212 -0.35114 -0.78386 0.47516 0 -0.8799 0.24549 0 -0.9694 -0.08258 0 -0.99658 -0.40088 0 -0.91613 -0.40168 -0.00803 -0.91574 -0.54619 0 -0.83766 -0.67728 0 -0.73572 -0.87947 0 -0.47595 -0.98636 -0 -0.16459 -0.98636 -0 0.16459 -0.87947 -0 0.47595 -0.67728 -0 0.73572 -0.54617 -0 0.83768 -0.40168 -0.00803 0.91574 -0.40088 -0 0.91613 0.51212 -0.35114 0.78386 0.61351 -0 0.78969 0.78914 -0 0.61421 0.94582 -0 0.3247 0.99658 0 0.08258 0.93631 0.35117 0 0.99658 0 -0.08258 0.94582 0 -0.3247 0.78914 0 -0.61421 0.61351 0 -0.78969 -0.08258 -0 0.99658 0.24549 -0 0.9694 0.47516 -0 0.8799</float_array>
          <technique_common>
            <accessor source="#norm_0-array" count="252" stride="3">
              <param name="X" type="float"/>
              <param name="Y" type="float"/>
              <param name="Z" type="float"/>
            </accessor>
          </technique_common>
        </source>
        <source id="uvs_0">
          <float_array id="uvs_0-array" count="0"></float_array>
          <technique_common>
            <accessor source="#uvs_0-array" count="0" stride="2">
              <param name="S" type="float"/>
              <param name="T" type="float"/>
            </accessor>
          </technique_common>
        </source>
        <vertices id="vert_0">
          <input semantic="POSITION" source="#pos_0"/>
        </vertices>
        <triangles count="266" material="mat_0">
          <input semantic="VERTEX" source="#vert_0" offset="0"/>
          <input semantic="NORMAL" source="#norm_0" offset="1"/>
          <p>0 0 1 0 2 0 3 0 0 0 4 0 4 0 0 0 2 0 4 0 2 0 5 0 5 0 2 0 6 0 7 1 8 1 9 1 9 1 8 1 5 1 9 1 5 1 10 1 10 1 5 1 6 1 11 2 12 2 4 2 4 2 12 2 13 2 14 2 15 2 8 2 8 2 15 2 5 2 16 3 17 3 18 3 18 3 17 3 19 3 18 3 19 3 20 3 20 3 19 3 21 3 22 3 23 3 24 3 24 3 23 3 25 3 26 0 27 0 22 0 22 0 27 0 23 0 26 4 22 4 28 4 28 4 22 4 24 4 19 4 28 4 21 4 21 4 28 4 24 4 21 4 24 4 29 4 29 4 24 4 30 4 31 2 28 2 17 2 17 2 28 2 19 2 32 1 31 1 16 1 16 1 31 1 17 1 33 0 32 0 18 0 18 0 32 0 16 0 34 1 35 1 25 1 25 1 35 1 36 1 25 1 36 1 20 1 34 1 25 1 37 1 37 1 25 1 23 1 37 1 23 1 38 1 39 1 40 1 33 1 33 1 40 1 41 1 33 1 41 1 42 1 36 1 43 1 20 1 20 1 43 1 44 1 20 1 44 1 18 1 18 1 44 1 45 1 18 1 45 1 46 1 46 1 47 1 18 1 18 1 47 1 48 1 18 1 48 1 33 1 33 1 48 1 49 1 33 1 49 1 39 1 50 1 51 1 27 1 27 1 51 1 52 1 52 1 53 1 27 1 27 1 53 1 54 1 27 1 54 1 23 1 23 1 54 1 55 1 23 1 55 1 38 1 42 1 56 1 33 1 33 1 56 1 57 1 33 1 57 1 27 1 27 1 57 1 58 1 27 1 58 1 50 1 27 5 26 5 33 5 33 5 26 5 28 5 33 5 28 5 32 5 32 5 28 5 31 5 59 1 60 1 61 1 60 1 62 1 61 1 61 1 62 1 63 1 61 1 63 1 64 1 61 1 65 1 59 1 59 1 65 1 66 1 59 1 66 1 67 1 67 1 68 1 59 1 59 1 68 1 69 1 59 1 69 1 70 1 71 1 72 1 64 1 64 1 72 1 73 1 64 1 73 1 74 1 74 1 75 1 64 1 64 1 75 1 76 1 64 1 76 1 77 1 70 1 78 1 59 1 59 1 78 1 79 1 59 1 79 1 80 1 80 1 79 1 81 1 80 1 81 1 82 1 77 1 83 1 64 1 64 1 83 1 84 1 64 1 84 1 61 1 60 6 59 6 49 6 49 7 59 7 80 7 49 7 80 7 39 7 39 8 80 8 82 8 39 9 82 9 40 9 40 10 82 10 81 10 40 11 81 11 41 11 41 12 81 12 79 12 41 13 79 13 42 13 42 14 79 14 78 14 42 15 78 15 56 15 56 16 78 16 70 16 56 17 70 17 57 17 57 18 70 18 69 18 57 19 69 19 58 19 58 20 69 20 68 20 58 21 68 21 50 21 50 22 68 22 67 22 50 23 67 23 51 23 51 24 67 24 66 24 51 25 66 25 52 25 52 26 66 26 65 26 52 27 65 27 53 27 53 28 65 28 61 28 53 29 61 29 54 29 54 30 61 30 84 30 54 31 84 31 55 31 55 32 84 32 83 32 55 33 83 33 38 33 38 34 83 34 77 34 38 35 77 35 37 35 37 36 77 36 76 36 37 37 76 37 34 37 34 38 76 38 75 38 34 39 75 39 35 39 35 40 75 40 74 40 35 40 74 40 36 40 36 41 74 41 73 41 36 42 73 42 43 42 43 43 73 43 72 43 43 44 72 44 44 44 44 45 72 45 71 45 44 46 71 46 45 46 45 47 71 47 64 47 45 48 64 48 46 48 46 49 64 49 63 49 46 50 63 50 47 50 47 51 63 51 62 51 47 52 62 52 48 52 48 53 62 53 60 53 48 54 60 54 49 54 30 0 24 0 25 0 30 0 25 0 85 0 85 0 25 0 86 0 85 0 86 0 87 0 88 1 15 1 14 1 89 1 90 1 87 1 86 1 91 1 87 1 87 1 91 1 88 1 87 1 88 1 89 1 89 1 88 1 14 1 21 2 29 2 20 2 20 2 29 2 92 2 20 2 92 2 91 2 91 2 92 2 88 2 29 3 30 3 92 3 92 3 30 3 85 3 91 5 86 5 20 5 20 5 86 5 25 5 87 5 90 5 85 5 85 5 90 5 93 5 15 5 88 5 5 5 5 5 88 5 92 5 5 5 92 5 4 5 4 5 92 5 11 5 89 0 94 0 90 0 90 0 94 0 93 0 12 4 11 4 92 4 12 4 92 4 94 4 94 4 92 4 85 4 94 4 85 4 93 4 89 3 14 3 94 3 94 3 14 3 8 3 12 3 94 3 13 3 13 3 94 3 8 3 13 3 8 3 95 3 95 3 8 3 7 3 96 4 3 4 97 4 97 4 3 4 4 4 97 4 4 4 95 4 95 4 4 4 13 4 9 2 98 2 7 2 7 2 98 2 99 2 7 2 99 2 95 2 95 2 99 2 100 2 95 2 100 2 97 2 9 0 10 0 101 0 101 0 10 0 102 0 103 0 101 0 104 0 104 0 101 0 102 0 104 0 102 0 105 0 105 0 102 0 106 0 107 0 108 0 109 0 109 0 108 0 96 0 109 0 96 0 97 0 110 0 111 0 112 0 112 0 111 0 108 0 112 0 108 0 113 0 113 0 108 0 107 0 114 55 115 55 9 55 9 56 115 56 98 56 98 57 115 57 116 57 98 57 116 57 99 57 99 58 116 58 117 58 99 58 117 58 100 58 100 59 117 59 97 59 97 60 117 60 118 60 97 61 118 61 109 61 109 62 118 62 119 62 109 62 119 62 107 62 107 63 119 63 120 63 107 63 120 63 113 63 113 64 120 64 121 64 113 64 121 64 112 64 112 65 121 65 122 65 112 65 122 65 110 65 110 66 122 66 123 66 110 66 123 66 111 66 111 67 123 67 124 67 111 67 124 67 108 67 108 68 124 68 96 68 96 69 124 69 125 69 96 70 125 70 3 70 10 71 126 71 127 71 10 72 127 72 102 72 102 73 127 73 128 73 102 73 128 73 106 73 106 74 128 74 129 74 106 74 129 74 105 74 105 75 129 75 130 75 105 76 130 76 104 76 130 77 131 77 104 77 104 78 131 78 132 78 104 78 132 78 103 78 103 79 132 79 114 79 103 79 114 79 101 79 101 80 114 80 9 80 3 70 125 70 0 70 0 81 125 81 133 81 0 81 133 81 1 81 1 82 133 82 126 82 1 82 126 82 2 82 2 83 126 83 10 83 2 83 10 83 6 83 130 2 129 2 134 2 130 2 134 2 131 2 115 2 114 2 134 2 134 2 114 2 132 2 134 2 132 2 131 2 118 2 117 2 134 2 134 2 117 2 116 2 134 2 116 2 115 2 121 2 120 2 134 2 134 2 120 2 119 2 134 2 119 2 118 2 124 2 123 2 134 2 134 2 123 2 122 2 134 2 122 2 121 2 126 2 133 2 134 2 134 2 133 2 125 2 134 2 125 2 124 2 129 2 128 2 134 2 134 2 128 2 127 2 134 2 127 2 126 2</p>
        </triangles>
      </mesh>
    </geometry>
  </library_geometries>
  <library_visual_scenes>
    <visual_scene id="DefaultScene">
      <node id="node_0624c369_427d_4408_b30f_0fb155613db1" type="NODE">
        <matrix>1 0 0 0 0 1 0 0 0 0 1 0 0 0 0 1</matrix>
        <node id="node_e8b630b6_9c0a_4c1d_a2b8_b951fa125bb2" type="NODE">
          <matrix>1 0 0 0 0 1 0 0 0 0 1 0 0 0 0 1</matrix>
          <node id="node_e8b630b6_9c0a_4c1d_a2b8_b951fa125bb2_mesh0" type="NODE">
            <matrix>1 0 0 0 0 1 0 0 0 0 1 0 0 0 0 1</matrix>
            <instance_geometry url="#geometry_721c420e_5bbd_4f74_9a5d_9231f785b026">
              <bind_material>
                <technique_common>
                  <instance_material symbol="mat_0" target="#mat_0"/>
                </technique_common>
              </bind_material>
            </instance_geometry>
          </node>
        </node>
      </node>
    </visual_scene>
  </library_visual_scenes>
  <scene>
    <instance_visual_scene url="#DefaultScene"/>
  </scene>
</COLLADA>
